<svg width="32" height="32" viewBox="0 0 32 32" fill="none" xmlns="http://www.w3.org/2000/svg">
<path d="M26.6667 8.71885C25.8825 9.06745 25.0384 9.3026 24.1528 9.40783C25.0571 8.86652 25.7504 8.00908 26.0773 6.98622C25.2316 7.48812 24.2953 7.85232 23.298 8.04892C22.4999 7.19841 21.3623 6.66663 20.1034 6.66663C17.6866 6.66663 15.727 8.62618 15.727 11.0435C15.727 11.386 15.7655 11.7199 15.8405 12.0408C12.2028 11.858 8.97749 10.1159 6.81873 7.46777C6.44198 8.11388 6.22632 8.86565 6.22632 9.66853C6.22632 11.1868 6.99888 12.5267 8.17331 13.3113C7.45618 13.2884 6.78106 13.0914 6.19081 12.7635C6.19038 12.7817 6.19038 12.8003 6.19038 12.819C6.19038 14.9392 7.69912 16.7078 9.70155 17.1105C9.33432 17.2101 8.94761 17.2638 8.54834 17.2638C8.26599 17.2638 7.99187 17.2365 7.72467 17.185C8.28201 18.9237 9.89815 20.1895 11.8131 20.2246C10.3152 21.3985 8.42838 22.0984 6.37746 22.0984C6.02452 22.0984 5.67592 22.0776 5.33337 22.0369C7.27084 23.2793 9.5712 24.0033 12.0426 24.0033C20.0934 24.0033 24.4954 17.3344 24.4954 11.5506C24.4954 11.3609 24.4915 11.1716 24.4833 10.9837C25.3381 10.3679 26.0804 9.59664 26.6667 8.71885Z" fill="white"/>
</svg>
