<svg width="24" height="24" viewBox="0 0 24 24" fill="none" xmlns="http://www.w3.org/2000/svg">
<path fill-rule="evenodd" clip-rule="evenodd" d="M12 22C17.5228 22 22 17.5228 22 12C22 6.47715 17.5228 2 12 2C6.47715 2 2 6.47715 2 12C2 17.5228 6.47715 22 12 22ZM9.46511 15.4438L7.29832 13.2561C6.90056 12.8479 6.90056 12.1989 7.29832 11.8011L7.30879 11.7907C7.71703 11.3824 8.37648 11.3824 8.77425 11.7907L10.2083 13.2247L14.8454 8.55618C15.2537 8.14794 15.9131 8.14794 16.3214 8.55618L16.3318 8.56664C16.7296 8.97488 16.7296 9.62387 16.3318 10.0216L10.9515 15.4438C10.5433 15.8521 9.87334 15.8521 9.46511 15.4438Z" fill="white"/>
</svg>
