<svg width="34" height="34" viewBox="0 0 34 34" fill="none" xmlns="http://www.w3.org/2000/svg">
<path d="M17 33.25C25.9766 33.25 33.25 25.9766 33.25 17C33.25 8.02344 25.9766 0.749999 17 0.749999C8.02344 0.75 0.749999 8.02344 0.749999 17C0.75 25.9766 8.02344 33.25 17 33.25ZM13.6094 10.6641C13.0234 10.0781 13.0234 9.11719 13.6094 8.53125C13.9062 8.23437 14.2891 8.09375 14.6719 8.09375C15.0547 8.09375 15.4453 8.24219 15.7422 8.53906L23.0859 15.9062C23.625 16.5 23.6094 17.4141 23.0391 17.9844L15.5859 25.4609C15 26.0469 14.0469 26.0547 13.4531 25.4609C12.8672 24.875 12.8594 23.9219 13.4531 23.3281L19.8516 16.9922L13.6094 10.6641Z" fill="#ED874E"/>
</svg>
