<svg width="14" height="19" viewBox="0 0 14 19" fill="none" xmlns="http://www.w3.org/2000/svg">
<path d="M12.8 7.5H11V5.1C11 2.203 9.665 0.5 7 0.5C4.334 0.5 3 2.203 3 5.1V7.5H1C0.447 7.5 0 8.146 0 8.699V16.5C0 17.049 0.428 17.639 0.951 17.807L2.148 18.194C2.672 18.361 3.55 18.5 4.1 18.5H9.9C10.449 18.5 11.328 18.361 11.851 18.193L13.047 17.806C13.571 17.639 14 17.049 14 16.5V8.699C14 8.146 13.352 7.5 12.8 7.5ZM9 7.5H5V4.699C5 3.254 5.797 2.5 7 2.5C8.203 2.5 9 3.254 9 4.699V7.5Z" fill="#39495C"/>
</svg>
