<svg width="82" height="47" viewBox="0 0 82 47" fill="none" xmlns="http://www.w3.org/2000/svg">
<rect y="4.68567" width="82" height="39.8286" rx="19.9143" fill="#ED874E"/>
<path d="M23.7636 35.3864C26.65 35.3864 28.275 33.9205 28.9227 32.6136H29.0591V35H32.3773V23.4091C32.3773 18.3295 28.3773 17.3182 25.6045 17.3182C22.4454 17.3182 19.5364 18.5909 18.4 21.7727L21.5932 22.5C22.0932 21.2614 23.3659 20.0682 25.65 20.0682C27.8432 20.0682 28.9682 21.2159 28.9682 23.1932V23.2727C28.9682 24.5114 27.6954 24.4886 24.5591 24.8523C21.2523 25.2386 17.8659 26.1023 17.8659 30.0682C17.8659 33.5 20.4454 35.3864 23.7636 35.3864ZM24.5023 32.6591C22.5818 32.6591 21.1954 31.7955 21.1954 30.1136C21.1954 28.2955 22.8091 27.6477 24.775 27.3864C25.8773 27.2386 28.4909 26.9432 28.9795 26.4545V28.7045C28.9795 30.7727 27.3318 32.6591 24.5023 32.6591ZM36.9028 35H40.3006V17.5455H36.9028V35ZM38.6187 14.8523C39.7892 14.8523 40.7665 13.9432 40.7665 12.8295C40.7665 11.7159 39.7892 10.7955 38.6187 10.7955C37.4369 10.7955 36.471 11.7159 36.471 12.8295C36.471 13.9432 37.4369 14.8523 38.6187 14.8523ZM51.8375 37.9091H53.9739L53.9852 35.3523C58.792 35 61.542 32.25 61.542 28.5682C61.542 24.375 57.8034 22.75 54.8489 22.0227L54.0193 21.8068L54.042 14.5114C56.167 14.7955 57.6216 15.9773 57.8375 17.8409H61.2239C61.1329 14.375 58.2693 11.7841 54.0534 11.4432L54.0648 8.81818H51.9284L51.917 11.4659C47.8375 11.875 44.8489 14.4205 44.8489 18.0909C44.8489 21.3295 47.167 23.2273 50.9057 24.2386L51.8829 24.5L51.8602 32.2386C49.6443 31.9659 47.9284 30.7614 47.7466 28.5682H44.2239C44.4398 32.4886 47.2693 35.0114 51.8489 35.3523L51.8375 37.9091ZM53.9966 32.2386L54.0193 25.0909C56.3261 25.7273 58.0648 26.5682 58.0648 28.5341C58.0648 30.5227 56.4057 31.9205 53.9966 32.2386ZM51.8943 21.2386C50.2011 20.7386 48.3375 19.8409 48.3489 17.8864C48.3489 16.1818 49.7011 14.8523 51.9057 14.5227L51.8943 21.2386Z" fill="white"/>
</svg>
