<svg width="24" height="24" viewBox="0 0 24 24" fill="none" xmlns="http://www.w3.org/2000/svg">
<g clip-path="url(#clip0)">
<path d="M23.3187 5.72605C23.2736 5.7245 22.3467 5.6932 20.986 5.72327V2.93353C20.986 2.52228 20.6349 2.19612 20.2214 2.23009C17.5084 2.45659 14.0567 3.65541 12 5.842C9.94334 3.65541 6.49162 2.45659 3.77859 2.23009C3.36588 2.19649 3.01398 2.5212 3.01398 2.93353V5.79871C2.24089 5.76953 1.50965 5.74897 0.726824 5.72595C0.332 5.71348 0 6.03151 0 6.43151V19.2866C0 19.6581 0.287859 19.966 0.658494 19.9908C3.4664 20.1798 8.16988 20.2011 11.7231 21.7166C12.0398 21.8518 12.324 21.6965 12.277 21.7166C15.8301 20.2012 20.5328 20.1799 23.3416 19.9908C23.7122 19.966 24.0001 19.6581 24.0001 19.2866V6.43151C24 6.05122 23.6988 5.73932 23.3187 5.72605ZM19.5743 3.72746V15.8257C17.5387 16.2811 14.959 17.2527 12.7059 19.313C12.7059 18.6916 12.7059 7.5156 12.7059 7.17951C14.2504 5.25245 17.1753 4.09094 19.5743 3.72746ZM4.42574 3.72746C6.82466 4.09094 9.74965 5.25245 11.2941 7.17951V19.313C9.04104 17.2527 6.46132 16.2811 4.42574 15.8257V3.72746ZM1.41176 18.6223V7.15847C1.91722 7.17344 2.45784 7.19033 3.01398 7.21155V16.4011C3.01398 16.7407 3.25586 17.0322 3.58965 17.0948C5.20146 17.3973 7.29746 18.054 9.25097 19.4679C6.46391 18.8428 3.54664 18.7424 1.41176 18.6223ZM22.5882 18.6223C20.4568 18.7422 17.5372 18.8426 14.749 19.4679C16.7025 18.054 18.7985 17.3973 20.4103 17.0948C20.7441 17.0322 20.986 16.7407 20.986 16.4011V7.13551C21.6357 7.12097 22.189 7.12078 22.5882 7.1244V18.6223H22.5882Z" fill="#ED874E"/>
<path d="M9.4638 8.80542C8.91707 8.42453 7.97453 7.957 6.96864 7.78702C6.58441 7.7218 6.21998 7.98105 6.15499 8.36542C6.09005 8.7498 6.34902 9.11408 6.73344 9.17902C7.51006 9.31027 8.2549 9.68378 8.65679 9.96378C8.97655 10.1866 9.41655 10.1081 9.63947 9.78811C9.8623 9.46825 9.78366 9.02825 9.4638 8.80542Z" fill="#ED874E"/>
<path d="M9.39311 12.7805C8.8901 12.4734 7.90624 11.9343 6.96864 11.7759C6.58441 11.7108 6.21998 11.9699 6.15499 12.3543C6.09005 12.7387 6.34902 13.103 6.73344 13.1679C7.46384 13.2913 8.32215 13.7807 8.65725 13.9854C8.99038 14.1887 9.42464 14.0832 9.62761 13.7509C9.83081 13.4182 9.72582 12.9838 9.39311 12.7805Z" fill="#ED874E"/>
<path d="M15.3431 9.96381C15.745 9.68381 16.4898 9.31031 17.2664 9.17906C17.6508 9.11412 17.9098 8.74984 17.8449 8.36546C17.7799 7.98104 17.4155 7.7217 17.0312 7.78706C16.0253 7.95699 15.0828 8.42457 14.5361 8.80546C14.2162 9.02828 14.1376 9.46828 14.3604 9.78814C14.5834 10.1082 15.0235 10.1865 15.3431 9.96381Z" fill="#ED874E"/>
<path d="M17.0313 11.776C16.0937 11.9344 15.1099 12.4734 14.6069 12.7806C14.2742 12.9838 14.1692 13.4182 14.3724 13.7509C14.5756 14.0836 15.01 14.1886 15.3427 13.9854C15.6778 13.7807 16.5361 13.2914 17.2665 13.168C17.6509 13.103 17.9099 12.7388 17.845 12.3544C17.78 11.9699 17.4156 11.7106 17.0313 11.776Z" fill="#ED874E"/>
</g>
<defs>
<clipPath id="clip0">
<rect width="24" height="24" fill="white"/>
</clipPath>
</defs>
</svg>
