<svg width="79" height="79" viewBox="0 0 79 79" fill="none" xmlns="http://www.w3.org/2000/svg">
<g clip-path="url(#clip0)">
<path d="M74.2985 53.546L78.9297 23.9752C79.4113 20.9745 77.3695 18.151 74.3686 17.6681L11.8767 7.63785C8.87591 7.15629 6.05259 9.1981 5.57103 12.1989L3.35039 26.028V53.374L74.2985 53.546Z" fill="#146AA8"/>
<path d="M74.3686 17.6681L56.6196 14.8201C44.6988 33.0602 25.4279 45.6937 10.6494 53.3919L74.2984 53.546L78.9296 23.9753C79.4111 20.9743 77.3693 18.151 74.3686 17.6681Z" fill="#126099"/>
<path d="M5.5036 24.6522H68.7948C71.8342 24.6522 74.2984 27.1165 74.2984 30.1558V65.9292C74.2984 68.9685 71.8342 71.4328 68.7948 71.4328H5.5036C2.46427 71.4326 0 68.9685 0 65.9292V30.1558C0 27.1165 2.46427 24.6522 5.5036 24.6522Z" fill="#4398D1"/>
<path d="M68.7948 24.6522H67.6941C54.7055 47.7109 30.4362 63.5282 15.6205 71.4326H68.7948C71.8342 71.4326 74.2984 68.9684 74.2984 65.929V30.1558C74.2984 27.1165 71.8342 24.6522 68.7948 24.6522Z" fill="#3E8CC7"/>
<path d="M20.6384 31.5317H6.87947V42.539H20.6384V31.5317Z" fill="#FDB62F"/>
<path d="M11.0072 35.6592H6.87947V38.4109H11.0072V35.6592Z" fill="#FD7B2F"/>
<path d="M20.6386 35.6592H16.5108V38.4109H20.6386V35.6592Z" fill="#FD7B2F"/>
<path d="M60.5395 64.553C64.3389 64.553 67.419 61.473 67.419 57.6735C67.419 53.8741 64.3389 50.7941 60.5395 50.7941C56.7401 50.7941 53.66 53.8741 53.66 57.6735C53.66 61.473 56.7401 64.553 60.5395 64.553Z" fill="#FDB62F"/>
<path d="M52.284 64.553C56.0834 64.553 59.1635 61.473 59.1635 57.6735C59.1635 53.8741 56.0834 50.7941 52.284 50.7941C48.4846 50.7941 45.4046 53.8741 45.4046 57.6735C45.4046 61.473 48.4846 64.553 52.284 64.553Z" fill="#DE4C3C"/>
<path d="M13.7589 52.1699H5.5036V54.9216H13.7589V52.1699Z" fill="#87CED9"/>
<path d="M27.5179 52.1699H19.2625V54.9216H27.5179V52.1699Z" fill="#87CED9"/>
<path d="M41.2768 52.1699H33.0215V54.9216H41.2768V52.1699Z" fill="#87CED9"/>
<path d="M41.2769 60.4257H5.5036V63.1774H41.2769V60.4257Z" fill="#87CED9"/>
<path d="M50.9081 31.5317H48.1564V37.0353H50.9081V31.5317Z" fill="#87CED9"/>
<path d="M56.4117 31.5317H53.66V37.0353H56.4117V31.5317Z" fill="#87CED9"/>
<path d="M61.9152 31.5317H59.1635V37.0353H61.9152V31.5317Z" fill="#87CED9"/>
<path d="M67.4188 31.5317H64.6671V37.0353H67.4188V31.5317Z" fill="#87CED9"/>
</g>
<defs>
<clipPath id="clip0">
<rect width="79" height="79" fill="white"/>
</clipPath>
</defs>
</svg>
