<svg width="24" height="24" viewBox="0 0 24 24" fill="none" xmlns="http://www.w3.org/2000/svg">
<path fill-rule="evenodd" clip-rule="evenodd" d="M13.9036 4.28396C13.9168 4.1912 13.9236 4.0964 13.9236 4C13.9236 2.89543 13.0282 2 11.9236 2C10.819 2 9.92358 2.89543 9.92358 4C9.92358 4.0964 9.9304 4.1912 9.94359 4.28396C7.04182 5.13808 4.92358 7.82167 4.92358 11V17H2.92358V19H4.92358H6.92358H8.92358C8.92358 20.6569 10.2667 22 11.9236 22C13.5804 22 14.9236 20.6569 14.9236 19H16.9236H18.9236H20.9236V17H18.9236V11C18.9236 7.82167 16.8053 5.13809 13.9036 4.28396ZM16.9236 17V11C16.9236 8.23858 14.685 6 11.9236 6C9.16216 6 6.92358 8.23858 6.92358 11V17H8.92358H10.9236H12.9236H14.9236H16.9236ZM12.9236 19H10.9236C10.9236 19.5523 11.3713 20 11.9236 20C12.4759 20 12.9236 19.5523 12.9236 19Z" fill="white"/>
</svg>
