<svg width="22" height="22" viewBox="0 0 22 22" fill="none" xmlns="http://www.w3.org/2000/svg">
<circle cx="11" cy="11" r="11" fill="#8DC63F"/>
<g clip-path="url(#clip0)">
<path d="M5.5 9.625V15.125C5.5 15.5047 5.80779 15.8125 6.1875 15.8125H8.25V8.9375H6.1875C5.80779 8.9375 5.5 9.24529 5.5 9.625Z" fill="white"/>
<path d="M15.2303 9.62495H13.1993C13.0218 9.62495 12.9328 9.50645 12.9029 9.45543C12.873 9.40474 12.8126 9.26945 12.8986 9.11436L13.6146 7.82496C13.7717 7.54264 13.7878 7.21064 13.6592 6.91422C13.5307 6.61747 13.2769 6.40229 12.963 6.32407L12.4581 6.19785C12.3353 6.16697 12.205 6.20625 12.1194 6.30125L9.37814 9.34666C9.09381 9.66322 8.93738 10.0714 8.93738 10.4964V14.0938C8.93738 15.0414 9.70846 15.8125 10.6561 15.8125L14.0758 15.8122C14.8479 15.8122 15.5297 15.2922 15.7335 14.5479L16.4673 11.1802C16.4888 11.0866 16.4999 10.9905 16.4999 10.8945C16.4999 10.1946 15.9302 9.62495 15.2303 9.62495L15.2303 9.62495Z" fill="white"/>
</g>
<defs>
<clipPath id="clip0">
<rect width="11" height="11" transform="matrix(1 0 0 -1 5.5 16.5)" fill="white"/>
</clipPath>
</defs>
</svg>
