<svg width="160" height="32" viewBox="0 0 160 32" fill="none" xmlns="http://www.w3.org/2000/svg">
<path d="M18.953 26.2538C23.4082 24.9732 26.6676 20.8675 26.6676 16.0005C26.6676 10.1092 21.8918 5.33337 16.0005 5.33337C10.1092 5.33337 5.33337 10.1092 5.33337 16.0005C5.33337 21.8441 10.0322 26.5902 15.8576 26.6667V19.2387H13.3813V16.1434H15.8576V14.2861C15.8576 11.7362 17.297 9.95262 19.5721 9.95262H22.0484V13.048H20.8102C19.5733 13.048 18.953 13.6671 18.953 14.9052V16.1434H22.0484L21.4293 19.2387H18.953V26.2538Z" fill="#ED874E"/>
<path d="M90.6059 8.29378L87.3866 23.4616C87.1437 24.5321 86.5103 24.7984 85.6102 24.2942L80.705 20.683L78.3382 22.9573C78.0763 23.2189 77.8571 23.4378 77.3524 23.4378L77.7048 18.4468L86.7961 10.2397C87.1913 9.88766 86.7104 9.69255 86.1817 10.0446L74.9426 17.1146L70.1041 15.6017C69.0516 15.2734 69.0326 14.5502 70.3231 14.0459L89.2487 6.76181C90.1249 6.43354 90.8917 6.95682 90.6059 8.29378Z" fill="white"/>
<path d="M154.667 8.71885C153.882 9.06745 153.038 9.3026 152.153 9.40783C153.057 8.86652 153.75 8.00908 154.077 6.98622C153.232 7.48812 152.295 7.85232 151.298 8.04892C150.5 7.19841 149.362 6.66663 148.103 6.66663C145.687 6.66663 143.727 8.62618 143.727 11.0435C143.727 11.386 143.766 11.7199 143.84 12.0408C140.203 11.858 136.977 10.1159 134.819 7.46777C134.442 8.11388 134.226 8.86565 134.226 9.66853C134.226 11.1868 134.999 12.5267 136.173 13.3113C135.456 13.2884 134.781 13.0914 134.191 12.7635C134.19 12.7817 134.19 12.8003 134.19 12.819C134.19 14.9392 135.699 16.7078 137.702 17.1105C137.334 17.2101 136.948 17.2638 136.548 17.2638C136.266 17.2638 135.992 17.2365 135.725 17.185C136.282 18.9237 137.898 20.1895 139.813 20.2246C138.315 21.3985 136.428 22.0984 134.377 22.0984C134.025 22.0984 133.676 22.0776 133.333 22.0369C135.271 23.2793 137.571 24.0033 140.043 24.0033C148.093 24.0033 152.495 17.3344 152.495 11.5506C152.495 11.3609 152.491 11.1716 152.483 10.9837C153.338 10.3679 154.08 9.59664 154.667 8.71885Z" fill="white"/>
</svg>
