<svg width="34" height="34" viewBox="0 0 34 34" fill="none" xmlns="http://www.w3.org/2000/svg">
<path d="M17 33.25C8.02344 33.25 0.75 25.9766 0.750001 17C0.750001 8.02344 8.02344 0.749999 17 0.749999C25.9766 0.75 33.25 8.02344 33.25 17C33.25 25.9766 25.9766 33.25 17 33.25ZM20.3906 10.6641C20.9766 10.0781 20.9766 9.11719 20.3906 8.53125C20.0938 8.23437 19.7109 8.09375 19.3281 8.09375C18.9453 8.09375 18.5547 8.24219 18.2578 8.53906L10.9141 15.9062C10.375 16.5 10.3906 17.4141 10.9609 17.9844L18.4141 25.4609C19 26.0469 19.9531 26.0547 20.5469 25.4609C21.1328 24.875 21.1406 23.9219 20.5469 23.3281L14.1484 16.9922L20.3906 10.6641Z" fill="#696E75"/>
</svg>
