<svg width="20" height="19" viewBox="0 0 20 19" fill="none" xmlns="http://www.w3.org/2000/svg">
<path d="M8.58589 10.8028C8.97639 11.1755 8.97639 11.7798 8.58589 12.1525C8.19529 12.5252 7.56216 12.5252 7.17163 12.1525C5.21901 10.2889 5.21901 7.26735 7.17163 5.40372L7.17166 5.40375L10.7071 2.02942C12.6597 0.165796 15.8256 0.165806 17.7782 2.02942C19.7308 3.89305 19.7308 6.91458 17.7782 8.77825L16.2926 10.196C16.3009 9.41323 16.166 8.62917 15.8877 7.883L16.364 7.42836C17.5356 6.31018 17.5356 4.49727 16.364 3.37909C15.1924 2.26092 13.293 2.26092 12.1214 3.37909L8.58589 6.75349C7.41428 7.87164 7.41428 9.68457 8.58589 10.8028ZM11.4143 6.75349C11.8048 6.38076 12.438 6.38076 12.8285 6.75349C14.7811 8.61714 14.7811 11.6387 12.8285 13.5023L9.29299 16.8767C7.34035 18.7403 4.17453 18.7403 2.22191 16.8767C0.269298 15.013 0.269288 11.9915 2.22191 10.1279L3.70753 8.71001C3.69922 9.49282 3.83419 10.2768 4.11243 11.0231L3.6361 11.4776C2.46453 12.5958 2.46453 14.4088 3.6361 15.5269C4.80767 16.6451 6.70717 16.6451 7.87874 15.5269L11.4143 12.1525C12.5859 11.0343 12.5859 9.22139 11.4143 8.10328C11.0238 7.73048 11.0238 7.12621 11.4143 6.75349Z" fill="#0F8CFF"/>
</svg>
