<svg width="32" height="32" viewBox="0 0 32 32" fill="none" xmlns="http://www.w3.org/2000/svg">
<g clip-path="url(#clip0)">
<path d="M29.7924 8.27585C29.7097 8.27585 29.6252 8.2571 29.5458 8.21792L22.9251 4.90754C22.6526 4.77129 22.5423 4.43966 22.6785 4.1671C22.8148 3.89453 23.1469 3.78472 23.4189 3.92047L30.0396 7.23085C30.3122 7.3671 30.4225 7.69873 30.2862 7.97129C30.1897 8.16442 29.9949 8.27585 29.7924 8.27585Z" fill="#E7ECED"/>
<path d="M25.9312 15.4485C25.7668 15.4485 25.604 15.3751 25.4953 15.2356L21.6333 10.2701C21.4462 10.0289 21.4898 9.683 21.7298 9.496C21.9704 9.30732 22.3169 9.35257 22.5039 9.59257L26.3659 14.5581C26.553 14.7992 26.5094 15.1451 26.2694 15.3321C26.1684 15.411 26.0493 15.4485 25.9312 15.4485Z" fill="#E7ECED"/>
<path d="M17.7695 24.8801C17.6018 24.8801 17.4363 24.804 17.3276 24.6594C17.145 24.4161 17.1941 24.0702 17.438 23.8876L20.5199 21.5764C20.7638 21.3938 21.1097 21.4429 21.2923 21.6868C21.475 21.9301 21.4258 22.276 21.182 22.4586L18.1 24.7698C18.0007 24.8437 17.8848 24.8801 17.7695 24.8801Z" fill="#E7ECED"/>
<path d="M7.17211 27.0347H3.31005C3.00549 27.0347 2.7583 26.788 2.7583 26.4829C2.7583 26.1778 3.00549 25.9312 3.31005 25.9312H7.17211C7.47668 25.9312 7.72386 26.1778 7.72386 26.4829C7.7238 26.788 7.47661 27.0347 7.17211 27.0347Z" fill="#E7ECED"/>
<path d="M14.6901 16.0911C14.5792 16.0911 14.4666 16.0574 14.3695 15.9879L9.60976 12.5866C9.36201 12.4094 9.30464 12.0652 9.48176 11.8169C9.65889 11.5687 10.0037 11.5118 10.2514 11.6889L15.0111 15.0903C15.2589 15.2674 15.3163 15.6117 15.1391 15.8599C15.0316 16.0111 14.8623 16.0911 14.6901 16.0911Z" fill="#E7ECED"/>
<path d="M9.41808 9.34081C9.26414 9.34081 9.11133 9.27737 9.00264 9.15212C8.80183 8.92262 8.82552 8.57393 9.05508 8.37362L13.4303 4.55018C13.6592 4.34936 14.0079 4.37255 14.2088 4.60261C14.4096 4.83211 14.3859 5.1808 14.1563 5.38112L9.78114 9.20456C9.67627 9.29612 9.54664 9.34081 9.41808 9.34081Z" fill="#E7ECED"/>
<path d="M5.51708 7.72429C5.21252 7.72429 4.96533 7.47766 4.96533 7.17254V3.31054C4.96533 3.00541 5.21252 2.75879 5.51708 2.75879C5.82165 2.75879 6.06883 3.00541 6.06883 3.31054V7.1726C6.06877 7.47766 5.82165 7.72429 5.51708 7.72429Z" fill="#E7ECED"/>
<path d="M22.9658 29.8841C22.8847 29.8841 22.8025 29.8665 22.7247 29.8284L16.8615 26.9788C16.5873 26.8458 16.4731 26.5153 16.6066 26.2411C16.7401 25.967 17.0695 25.8533 17.3443 25.9863L23.2074 28.8359C23.4816 28.9688 23.5959 29.2993 23.4623 29.5735C23.3669 29.77 23.1705 29.8841 22.9658 29.8841Z" fill="#E7ECED"/>
<path d="M11.0345 12.6896C11.0345 9.64243 8.56444 7.17236 5.51725 7.17236C2.47006 7.17236 0 9.64249 0 12.6896C0 14.7304 1.11119 16.5081 2.75863 17.4626V16.0082C2.75863 15.3941 3.27725 14.8964 3.91669 14.8964H7.11781C7.75725 14.8964 8.27588 15.3941 8.27588 16.0082V17.4614C9.92387 16.5087 11.0345 14.7305 11.0345 12.6896Z" fill="#366DB6"/>
<path d="M30.3446 9.93123C31.2588 9.93123 31.9998 9.19017 31.9998 8.27604C31.9998 7.3619 31.2588 6.62085 30.3446 6.62085C29.4305 6.62085 28.6895 7.3619 28.6895 8.27604C28.6895 9.19017 29.4305 9.93123 30.3446 9.93123Z" fill="#DD352E"/>
<path d="M1.65519 28.138C2.56932 28.138 3.31037 27.397 3.31037 26.4828C3.31037 25.5687 2.56932 24.8276 1.65519 24.8276C0.741053 24.8276 0 25.5687 0 26.4828C0 27.397 0.741053 28.138 1.65519 28.138Z" fill="#DD352E"/>
<path d="M24.2758 32.0001C25.1899 32.0001 25.931 31.259 25.931 30.3449C25.931 29.4308 25.1899 28.6897 24.2758 28.6897C23.3617 28.6897 22.6206 29.4308 22.6206 30.3449C22.6206 31.259 23.3617 32.0001 24.2758 32.0001Z" fill="#DD352E"/>
<path d="M15.9999 18.2071C16.914 18.2071 17.6551 17.4661 17.6551 16.5519C17.6551 15.6378 16.914 14.8967 15.9999 14.8967C15.0858 14.8967 14.3447 15.6378 14.3447 16.5519C14.3447 17.4661 15.0858 18.2071 15.9999 18.2071Z" fill="#DD352E"/>
<path d="M5.517 12.6895C6.43114 12.6895 7.17219 11.9485 7.17219 11.0343C7.17219 10.1202 6.43114 9.37915 5.517 9.37915C4.60287 9.37915 3.86182 10.1202 3.86182 11.0343C3.86182 11.9485 4.60287 12.6895 5.517 12.6895Z" fill="white"/>
<path d="M7.11749 14.8962H3.91636C3.27693 14.8962 2.7583 15.3939 2.7583 16.008V17.4624C3.57043 17.933 4.51055 18.2066 5.51693 18.2066C6.5233 18.2066 7.46343 17.933 8.27555 17.4624V16.008C8.27555 15.3939 7.75693 14.8962 7.11749 14.8962Z" fill="white"/>
<path d="M24.2762 5.51725C24.2762 2.47006 21.8061 0 18.7589 0C15.7118 0 13.2417 2.47006 13.2417 5.51725C13.2417 7.55806 14.3529 9.33575 16.0003 10.2902V8.83581C16.0003 8.22175 16.5189 7.72406 17.1584 7.72406H20.3595C20.9989 7.72406 21.5176 8.22169 21.5176 8.83581V10.2891C23.1656 9.33625 24.2762 7.55806 24.2762 5.51725Z" fill="#366DB6"/>
<path d="M18.7587 5.51716C19.6728 5.51716 20.4139 4.77611 20.4139 3.86197C20.4139 2.94784 19.6728 2.20679 18.7587 2.20679C17.8446 2.20679 17.1035 2.94784 17.1035 3.86197C17.1035 4.77611 17.8446 5.51716 18.7587 5.51716Z" fill="white"/>
<path d="M20.3592 7.72412H17.1581C16.5186 7.72412 16 8.22175 16 8.83587V10.2902C16.8121 10.7609 17.7523 11.0345 18.7586 11.0345C19.765 11.0345 20.7051 10.7609 21.5173 10.2902V8.83587C21.5173 8.22181 20.9986 7.72412 20.3592 7.72412Z" fill="white"/>
<path d="M31.4481 19.862C31.4481 16.8148 28.978 14.3447 25.9308 14.3447C22.8836 14.3447 20.4136 16.8148 20.4136 19.862C20.4136 21.9028 21.5248 23.6805 23.1722 24.6349V23.1805C23.1722 22.5665 23.6908 22.0688 24.3303 22.0688H27.5314C28.1708 22.0688 28.6894 22.5664 28.6894 23.1805V24.6338C30.3374 23.681 31.4481 21.9028 31.4481 19.862Z" fill="#366DB6"/>
<path d="M25.9311 19.8621C26.8452 19.8621 27.5863 19.1211 27.5863 18.2069C27.5863 17.2928 26.8452 16.5518 25.9311 16.5518C25.0169 16.5518 24.2759 17.2928 24.2759 18.2069C24.2759 19.1211 25.0169 19.8621 25.9311 19.8621Z" fill="white"/>
<path d="M27.5315 22.0688H24.3304C23.691 22.0688 23.1724 22.5665 23.1724 23.1806V24.635C23.9845 25.1056 24.9246 25.3792 25.931 25.3792C26.9374 25.3792 27.8775 25.1056 28.6896 24.635V23.1806C28.6896 22.5665 28.171 22.0688 27.5315 22.0688Z" fill="white"/>
<path d="M18.2069 26.4828C18.2069 23.4356 15.7368 20.9656 12.6896 20.9656C9.64243 20.9656 7.17236 23.4356 7.17236 26.4828C7.17236 28.5236 8.28355 30.3013 9.93099 31.2558V29.8014C9.93099 29.1873 10.4496 28.6896 11.0891 28.6896H14.2902C14.9296 28.6896 15.4482 29.1873 15.4482 29.8014V31.2546C17.0962 30.3019 18.2069 28.5236 18.2069 26.4828Z" fill="#366DB6"/>
<path d="M12.6899 26.4827C13.604 26.4827 14.345 25.7417 14.345 24.8276C14.345 23.9134 13.604 23.1724 12.6899 23.1724C11.7757 23.1724 11.0347 23.9134 11.0347 24.8276C11.0347 25.7417 11.7757 26.4827 12.6899 26.4827Z" fill="white"/>
<path d="M14.2903 28.6895H11.0892C10.4498 28.6895 9.93115 29.1871 9.93115 29.8012V31.2556C10.7433 31.7262 11.6834 31.9998 12.6898 31.9998C13.6962 31.9998 14.6363 31.7262 15.4484 31.2556V29.8012C15.4484 29.1871 14.9298 28.6895 14.2903 28.6895Z" fill="white"/>
<path d="M5.51749 3.31037C6.43163 3.31037 7.17268 2.56932 7.17268 1.65519C7.17268 0.741053 6.43163 0 5.51749 0C4.60336 0 3.8623 0.741053 3.8623 1.65519C3.8623 2.56932 4.60336 3.31037 5.51749 3.31037Z" fill="#DD352E"/>
</g>
<defs>
<clipPath id="clip0">
<rect width="32" height="32" fill="white"/>
</clipPath>
</defs>
</svg>
