<svg width="35" height="33" viewBox="0 0 35 33" fill="none" xmlns="http://www.w3.org/2000/svg">
<path d="M8.64671 0C7.45816 0 6.48572 0.928125 6.48572 2.0625V30.9375C6.48572 32.0719 7.45816 33 8.64671 33H30.2566C31.4452 33 32.4176 32.0719 32.4176 30.9375V8.25L23.7736 0H8.64671Z" fill="#E2E5E7"/>
<path d="M25.9347 8.25H32.4176L23.7737 0V6.1875C23.7737 7.32188 24.7461 8.25 25.9347 8.25Z" fill="#B0B7BD"/>
<path d="M32.4177 14.4375L25.9347 8.25H32.4177V14.4375Z" fill="#CAD1D8"/>
<path d="M28.0957 26.8125C28.0957 27.3797 27.6095 27.8438 27.0152 27.8438H3.24431C2.65004 27.8438 2.16382 27.3797 2.16382 26.8125V16.5C2.16382 15.9328 2.65004 15.4688 3.24431 15.4688H27.0152C27.6095 15.4688 28.0957 15.9328 28.0957 16.5V26.8125Z" fill="#F15642"/>
<path d="M6.87366 19.5391C6.87366 19.2668 7.0984 18.9698 7.46037 18.9698H9.45604C10.5798 18.9698 11.5911 19.6876 11.5911 21.0633C11.5911 22.3668 10.5798 23.0928 9.45604 23.0928H8.01358V24.1818C8.01358 24.5448 7.77155 24.75 7.46037 24.75C7.17512 24.75 6.87366 24.5448 6.87366 24.1818V19.5391ZM8.01358 20.0083V22.0626H9.45604C10.0352 22.0626 10.4933 21.5748 10.4933 21.0633C10.4933 20.4868 10.0352 20.0083 9.45604 20.0083H8.01358Z" fill="white"/>
<path d="M13.2832 24.75C12.9979 24.75 12.6868 24.6015 12.6868 24.2395V19.5556C12.6868 19.2596 12.9979 19.0441 13.2832 19.0441H15.2616C19.2097 19.0441 19.1233 24.75 15.3394 24.75H13.2832ZM13.8278 20.0506V23.7445H15.2616C17.5944 23.7445 17.6981 20.0506 15.2616 20.0506H13.8278Z" fill="white"/>
<path d="M20.5235 20.1166V21.4273H22.7266C23.0378 21.4273 23.349 21.7243 23.349 22.012C23.349 22.2843 23.0378 22.507 22.7266 22.507H20.5235V24.2385C20.5235 24.5273 20.3085 24.749 20.006 24.749C19.6256 24.749 19.3933 24.5273 19.3933 24.2385V19.5546C19.3933 19.2586 19.6267 19.0431 20.006 19.0431H23.0389C23.4192 19.0431 23.644 19.2586 23.644 19.5546C23.644 19.8186 23.4192 20.1156 23.0389 20.1156H20.5235V20.1166Z" fill="white"/>
<path d="M27.0151 27.8438H6.48572V28.875H27.0151C27.6094 28.875 28.0956 28.4109 28.0956 27.8438V26.8125C28.0956 27.3797 27.6094 27.8438 27.0151 27.8438Z" fill="#CAD1D8"/>
</svg>
