<svg width="111" height="50" viewBox="0 0 111 50" fill="none" xmlns="http://www.w3.org/2000/svg">
<path d="M78.44 7.43205V23.68C78.4414 23.7395 78.4307 23.7986 78.4085 23.8539C78.3864 23.9091 78.3533 23.9592 78.3112 24.0013C78.2692 24.0434 78.219 24.0764 78.1638 24.0986C78.1086 24.1207 78.0495 24.1314 77.99 24.13H74.676C74.6165 24.1314 74.5574 24.1207 74.5022 24.0986C74.447 24.0764 74.3968 24.0434 74.3548 24.0013C74.3127 23.9592 74.2796 23.9091 74.2575 23.8539C74.2353 23.7986 74.2246 23.7395 74.226 23.68V7.43205C74.2246 7.37258 74.2353 7.31345 74.2575 7.25823C74.2796 7.20302 74.3127 7.15286 74.3548 7.1108C74.3968 7.06874 74.447 7.03564 74.5022 7.01351C74.5574 6.99138 74.6165 6.98068 74.676 6.98205H77.99C78.0495 6.98068 78.1086 6.99138 78.1638 7.01351C78.219 7.03564 78.2692 7.06874 78.3112 7.1108C78.3533 7.15286 78.3864 7.20302 78.4085 7.25823C78.4307 7.31345 78.4414 7.37258 78.44 7.43205ZM104.308 6.98205C104.437 6.98205 104.598 7.04605 104.758 7.17505C104.855 7.27105 104.855 7.43205 104.823 7.56105L99.353 23.841C99.3198 23.9253 99.2624 23.9978 99.188 24.0494C99.1136 24.101 99.0255 24.1294 98.935 24.131H95.975C95.782 24.131 95.621 24.034 95.557 23.841L92.37 14.35L89.185 23.84C89.1518 23.9243 89.0944 23.9968 89.02 24.0484C88.9456 24.1 88.8575 24.1284 88.767 24.13H85.807C85.614 24.13 85.453 24.034 85.389 23.84L79.919 7.56005C79.887 7.43205 79.887 7.30305 79.983 7.17505C80.048 7.04605 80.209 6.98205 80.337 6.98205H84.037C84.23 6.98205 84.391 7.11005 84.456 7.30305L87.383 16.923L90.601 7.30305C90.6342 7.2188 90.6916 7.14629 90.766 7.09467C90.8404 7.04305 90.9285 7.01465 91.019 7.01305H93.625C93.818 7.01305 93.979 7.11005 94.043 7.30305L97.261 16.923L100.189 7.30305C100.215 7.21191 100.27 7.13158 100.345 7.07382C100.42 7.01605 100.512 6.98389 100.607 6.98205H104.307H104.308ZM109.906 6.98205C110.131 6.98205 110.324 7.17505 110.356 7.43205V23.68C110.357 23.7395 110.347 23.7986 110.325 23.8539C110.302 23.9091 110.269 23.9592 110.227 24.0013C110.185 24.0434 110.135 24.0764 110.08 24.0986C110.025 24.1207 109.965 24.1314 109.906 24.13H106.592C106.533 24.1314 106.473 24.1207 106.418 24.0986C106.363 24.0764 106.313 24.0434 106.271 24.0013C106.229 23.9592 106.196 23.9091 106.173 23.8539C106.151 23.7986 106.141 23.7395 106.142 23.68V7.43205C106.141 7.37258 106.151 7.31345 106.173 7.25823C106.196 7.20302 106.229 7.15286 106.271 7.1108C106.313 7.06874 106.363 7.03564 106.418 7.01351C106.473 6.99138 106.533 6.98068 106.592 6.98205H109.906ZM72.295 23.552C72.488 23.777 72.327 24.098 72.037 24.098H67.983C67.9032 24.1002 67.8239 24.0839 67.7514 24.0504C67.6789 24.017 67.6151 23.9672 67.565 23.905L66.89 23.069C65.474 23.969 63.8 24.517 62.031 24.517C57.077 24.517 53.055 20.495 53.055 15.54C53.055 10.585 57.077 6.56305 62.031 6.56305C66.986 6.56305 71.008 10.585 71.008 15.54C71.008 17.31 70.493 18.983 69.592 20.398L72.295 23.551V23.552ZM38.415 31.434C39.252 31.756 39.574 33.01 39.638 33.557C39.767 34.555 39.478 34.941 39.156 34.941C38.834 34.941 38.383 34.555 37.901 33.783C37.418 33.01 37.225 32.142 37.483 31.691C37.643 31.401 37.997 31.273 38.416 31.434H38.415ZM33.525 35.07C34.04 35.07 34.619 35.295 35.134 35.745C36.131 36.582 36.421 37.547 35.906 38.255C35.616 38.609 35.134 38.834 34.587 38.834C34.04 38.834 33.461 38.641 33.075 38.287C32.174 37.515 31.917 36.227 32.495 35.52C32.721 35.23 33.075 35.07 33.525 35.07ZM22.265 44.368C10.038 44.368 0.129 34.458 0.129 22.232C0.129 10.006 10.039 0.0970459 22.264 0.0970459C34.49 0.0970459 44.4 10.007 44.4 22.232C44.4 26.382 43.242 30.276 41.28 33.59C41.215 33.686 41.054 33.654 41.022 33.525C40.25 28.088 36.936 25.095 32.11 24.195C31.691 24.13 31.627 23.873 32.174 23.809C33.654 23.68 35.745 23.712 36.839 23.905C36.903 23.358 36.936 22.779 36.936 22.2C36.936 14.124 30.372 7.56005 22.296 7.56005C14.221 7.56005 7.657 14.124 7.657 22.2C7.657 30.276 14.221 36.84 22.297 36.84H22.972C22.7427 35.5338 22.6455 34.2078 22.682 32.882C22.715 31.981 22.908 31.852 23.294 32.56C25.321 36.067 28.217 39.22 33.879 40.475C38.512 41.505 43.145 42.695 48.132 49.033C48.582 49.58 47.907 50.159 47.392 49.709C42.309 45.204 37.676 43.724 33.461 43.724C28.731 43.757 25.514 44.368 22.264 44.368H22.265ZM64.251 19.948L62.481 17.792C62.289 17.567 62.45 17.213 62.739 17.213H66.471C66.664 16.698 66.761 16.119 66.761 15.54C66.761 12.87 64.766 10.553 62.031 10.553C59.297 10.553 57.301 12.87 57.301 15.54C57.301 18.21 59.297 20.495 62.031 20.495C62.803 20.527 63.576 20.302 64.251 19.948Z" fill="#FF8C00"/>
</svg>
