<svg width="40" height="40" viewBox="0 0 40 40" fill="none" xmlns="http://www.w3.org/2000/svg">
<g clip-path="url(#clip0)">
<path d="M20.6427 37.5618C20.3132 37.5618 19.9837 37.5618 19.5883 37.5618L19.6542 36.2438H20.5767C30.2639 36.2438 38.1056 28.402 38.1056 18.7809C38.1056 9.15974 30.2639 1.31796 20.6427 1.31796C11.0216 1.31796 3.17977 9.15974 3.17977 18.7809C3.17977 19.3079 3.17977 19.8353 3.24574 20.3624L1.92778 20.4943C1.86182 19.9013 1.86182 19.3739 1.86182 18.7809C1.86182 8.4348 10.2966 0 20.6427 0C30.9885 0 39.4236 8.4348 39.4236 18.7809C39.4236 29.127 30.9885 37.5618 20.6427 37.5618Z" fill="#5DA364"/>
<path d="M9.76953 8.56665H32.1748V19.1103H9.76953V8.56665Z" fill="#5DA364"/>
<path d="M22.949 13.8385C22.949 14.9303 22.0638 15.8154 20.972 15.8154C19.8803 15.8154 18.9951 14.9303 18.9951 13.8385C18.9951 12.7468 19.8803 11.8616 20.972 11.8616C22.0638 11.8616 22.949 12.7468 22.949 13.8385Z" fill="#EDC17C"/>
<path d="M13.064 13.1796H11.7461V10.5437H14.382V11.8617H13.064V13.1796Z" fill="#538457"/>
<path d="M14.382 17.1335H11.7461V14.4976H13.064V15.8155H14.382V17.1335Z" fill="#538457"/>
<path d="M30.1974 17.1335H27.5615V15.8155H28.8795V14.4976H30.1974V17.1335Z" fill="#538457"/>
<path d="M30.1974 13.1796H28.8795V11.8617H27.5615V10.5437H30.1974V13.1796Z" fill="#538457"/>
<path d="M15.0415 13.1797H17.0184V14.4976H15.0415V13.1797Z" fill="#EDC17C"/>
<path d="M24.9258 13.1797H26.9027V14.4976H24.9258V13.1797Z" fill="#EDC17C"/>
<path d="M0.543457 22.4053H7.13324V32.29H0.543457V22.4053Z" fill="#4A4A56"/>
<path d="M3.83887 22.4053H5.15682V27.0181H3.83887V22.4053Z" fill="#676B7F"/>
<path d="M3.83887 28.3359H5.15682V30.3129H3.83887V28.3359Z" fill="#676B7F"/>
<path d="M21.7625 40.0001L18.7314 36.9687L21.8285 33.8054L22.751 34.7939L20.5765 36.9687L22.751 39.0772L21.7625 40.0001Z" fill="#5DA364"/>
<path d="M29.8685 25.3047L21.8948 27.6111C21.6973 27.6771 21.4994 27.6771 21.3018 27.6771L13.7236 26.3591H18.3364C19.4565 26.3591 20.3134 25.5026 20.3134 24.3822C20.3134 23.2618 19.4565 22.4053 18.3364 22.4053H10.0992C9.90131 22.4053 9.63778 22.4712 9.44021 22.6028L7.13379 23.9208V30.379L14.5801 33.476C14.8436 33.6079 15.1731 33.6079 15.5026 33.5419L30.923 28.7315C31.8455 28.468 32.3725 27.4136 32.109 26.4911C31.7795 25.5026 30.857 24.9752 29.8685 25.3047Z" fill="#EFCCBF"/>
</g>
<defs>
<clipPath id="clip0">
<rect width="40" height="40" fill="white"/>
</clipPath>
</defs>
</svg>
