<svg width="35" height="35" viewBox="0 0 35 35" fill="none" xmlns="http://www.w3.org/2000/svg">
<g clip-path="url(#clip0)">
<path d="M21.9485 8.89829H13.0502C12.7228 8.89829 12.457 8.63256 12.457 8.30513V5.04231C12.4569 2.26194 14.7188 0 17.4993 0C20.2799 0 22.5416 2.26194 22.5416 5.04231V8.30495C22.5416 8.63256 22.2759 8.89829 21.9485 8.89829ZM13.6434 7.71179H21.3551V5.04231C21.3551 2.91628 19.6254 1.18632 17.4992 1.18632C15.373 1.18632 13.6434 2.91628 13.6434 5.04231V7.71179Z" fill="black"/>
<path d="M30.5504 11.2709H4.44873L6.22839 8.30493H28.7708L30.5504 11.2709Z" fill="#8C6B3B"/>
<path d="M30.5505 11.8645H4.44876C4.23482 11.8645 4.03791 11.7494 3.93259 11.5635C3.82727 11.3775 3.82988 11.1495 3.94006 10.9658L5.71972 7.99965C5.82678 7.82081 6.01987 7.71167 6.22842 7.71167H28.7708C28.9794 7.71167 29.1725 7.82081 29.2795 7.99965L31.0592 10.9658C31.1692 11.1492 31.172 11.3775 31.0666 11.5635C30.9613 11.7493 30.7642 11.8645 30.5505 11.8645ZM5.4964 10.678H29.5028L28.435 8.89834H6.56454L5.4964 10.678Z" fill="black"/>
<path d="M17.4859 12.579L25.5723 14.47L27.5983 5.80605L19.512 3.91505L17.4859 12.579Z" fill="#83D816"/>
<path d="M25.5725 15.0659C25.5277 15.0659 25.4823 15.0609 25.4366 15.0503L17.3498 13.1589C17.1965 13.1229 17.0639 13.028 16.9808 12.894C16.8977 12.7605 16.8713 12.5993 16.9073 12.4461L18.9341 3.78195C19.0085 3.46286 19.3274 3.26404 19.6468 3.33947L27.7337 5.23088C27.887 5.26685 28.0196 5.36175 28.1026 5.49574C28.1857 5.62922 28.2121 5.7905 28.1761 5.94361L26.1494 14.6078C26.0856 14.8815 25.8416 15.0659 25.5725 15.0659ZM18.1976 12.1387L25.1294 13.76L26.8856 6.2514L19.9537 4.63007L18.1976 12.1387Z" fill="black"/>
<path d="M8.01923 14.1988L17.9414 13.0259L16.6847 2.39486L6.76248 3.56781L8.01923 14.1988Z" fill="#2A8EE6"/>
<path d="M8.01838 14.793C7.72171 14.793 7.46571 14.5711 7.42991 14.2692L6.17355 3.63868C6.13531 3.31334 6.36785 3.01841 6.69285 2.97982L16.6148 1.80706C16.7717 1.78863 16.928 1.83313 17.0517 1.93045C17.1754 2.02778 17.2552 2.17046 17.2736 2.3267L18.53 12.9576C18.5484 13.1136 18.5043 13.2711 18.4066 13.3945C18.3093 13.5182 18.1666 13.598 18.0107 13.6164L8.08877 14.7888C8.06496 14.7914 8.04149 14.793 8.01838 14.793ZM7.42122 4.08863L8.53855 13.541L17.2823 12.5079L16.165 3.05525L7.42122 4.08863Z" fill="black"/>
<path d="M13.6134 18.6439L23.1709 16.3457L20.7523 6.28747L11.1947 8.58569L13.6134 18.6439Z" fill="#ED5481"/>
<path d="M13.612 19.2372C13.3441 19.2372 13.1008 19.0547 13.0356 18.7827L10.6171 8.725C10.5407 8.40643 10.7367 8.08613 11.0553 8.00966L20.6117 5.71157C20.7653 5.67508 20.9261 5.70062 21.0601 5.78213C21.1941 5.86434 21.2902 5.9966 21.327 6.14936L23.7456 16.2074C23.7824 16.3605 23.7569 16.5218 23.6747 16.6558C23.5925 16.7901 23.4606 16.8859 23.3074 16.9227L13.751 19.2206C13.7046 19.2321 13.6577 19.2372 13.612 19.2372ZM11.9091 9.02427L14.0503 17.9288L22.4532 15.9083L20.3121 7.00391L11.9091 9.02427Z" fill="black"/>
<path d="M31.7372 34.4066H3.2627L4.44902 11.271H30.5507L31.7372 34.4066Z" fill="#FBAD4A"/>
<path d="M31.7367 35.0001H3.26216C3.09966 35.0001 2.94412 34.9334 2.83202 34.8155C2.72027 34.6977 2.66153 34.5389 2.6697 34.3765L3.85619 11.241C3.87253 10.9257 4.13287 10.6782 4.44883 10.6782H30.5505C30.8665 10.6782 31.1269 10.9255 31.1432 11.241L32.3297 34.3765C32.338 34.539 32.2793 34.6977 32.1674 34.8155C32.0546 34.9334 31.8992 35.0001 31.7367 35.0001ZM3.88643 33.8136H31.1122L29.9866 11.8645H5.0121L3.88643 33.8136Z" fill="black"/>
<path d="M21.9492 16.0168C22.6045 16.0168 23.1357 15.4856 23.1357 14.8303C23.1357 14.175 22.6045 13.6438 21.9492 13.6438C21.2939 13.6438 20.7627 14.175 20.7627 14.8303C20.7627 15.4856 21.2939 16.0168 21.9492 16.0168Z" fill="#8C6B3B"/>
<path d="M21.9491 16.6101C20.9677 16.6101 20.1694 15.8119 20.1694 14.8304C20.1694 13.849 20.9677 13.0508 21.9491 13.0508C22.9305 13.0508 23.7288 13.849 23.7288 14.8304C23.7288 15.8119 22.9305 16.6101 21.9491 16.6101ZM21.9491 14.2373C21.622 14.2373 21.3559 14.5034 21.3559 14.8304C21.3559 15.1575 21.622 15.4236 21.9491 15.4236C22.2762 15.4236 22.5423 15.1575 22.5423 14.8304C22.5423 14.5034 22.2762 14.2373 21.9491 14.2373Z" fill="black"/>
<path d="M13.0503 16.0168C13.7056 16.0168 14.2368 15.4856 14.2368 14.8303C14.2368 14.175 13.7056 13.6438 13.0503 13.6438C12.395 13.6438 11.8638 14.175 11.8638 14.8303C11.8638 15.4856 12.395 16.0168 13.0503 16.0168Z" fill="#8C6B3B"/>
<path d="M13.0507 16.6101C12.0692 16.6101 11.271 15.8119 11.271 14.8304C11.271 13.849 12.0692 13.0508 13.0507 13.0508C14.0321 13.0508 14.8303 13.849 14.8303 14.8304C14.8303 15.8119 14.0321 16.6101 13.0507 16.6101ZM13.0507 14.2373C12.7236 14.2373 12.4575 14.5034 12.4575 14.8304C12.4575 15.1575 12.7236 15.4236 13.0507 15.4236C13.3777 15.4236 13.6438 15.1575 13.6438 14.8304C13.6438 14.5034 13.3777 14.2373 13.0507 14.2373Z" fill="black"/>
<path d="M17.4993 23.7287C14.719 23.7287 12.457 21.4667 12.457 18.6864V15.4237C12.457 15.0963 12.7228 14.8306 13.0502 14.8306C13.3776 14.8306 13.6434 15.0963 13.6434 15.4237V18.6864C13.6434 20.8124 15.3731 22.5424 17.4993 22.5424C19.6255 22.5424 21.3553 20.8126 21.3553 18.6864V15.6524C21.3256 15.5822 21.3096 15.5047 21.3096 15.4237C21.3096 15.0963 21.5753 14.8306 21.9028 14.8306H21.9485C22.2759 14.8306 22.5416 15.0963 22.5416 15.4237V18.6864C22.5416 21.4667 20.2797 23.7287 17.4993 23.7287Z" fill="black"/>
</g>
<defs>
<clipPath id="clip0">
<rect width="35" height="35" fill="white"/>
</clipPath>
</defs>
</svg>
