<svg width="24" height="24" viewBox="0 0 24 24" fill="none" xmlns="http://www.w3.org/2000/svg">
<path fill-rule="evenodd" clip-rule="evenodd" d="M10.1876 2C5.11345 2 1 6.11345 1 11.1876C1 16.2618 5.11345 20.3753 10.1876 20.3753C12.7247 20.3753 15.0216 19.3469 16.6843 17.6843L20.8235 21.8235L22.2377 20.4093L17.9435 16.1151C18.8501 14.6912 19.3753 13.0007 19.3753 11.1876C19.3753 6.11345 15.2618 2 10.1876 2ZM3 11.1876C3 7.21802 6.21802 4 10.1876 4C14.1573 4 17.3753 7.21802 17.3753 11.1876C17.3753 15.1573 14.1573 18.3753 10.1876 18.3753C6.21802 18.3753 3 15.1573 3 11.1876Z" fill="black"/>
</svg>
